PathFileType	4	(X/Y/Z)	Data\static.trc
DataRate	CameraRate	NumFrames	NumMarkers	Units	OrigDataRate	OrigDataStartFrame	OrigNumFrames
250.000000	250.000000	5	38	mm	250.000000	60	483
Frame#	Time	RASI			LASI			RPSI			LPSI			RAIC			LAIC			RLFC			RMFC			RTH1			RTH2			RTH3			RLMAL			RMMAL			RTB1			RTB2			RTB3			RCAL			RMT1			RMT5			LLFC			LMFC			LTH1			LTH2			LTH3			LLMAL			LMMAL			LTB1			LTB2			LTB3			LCAL			LMT1			LMT5			C7			T10			CLAV			STRN			RACR			LACR			
		X1	Y1	Z1	X2	Y2	Z2	X3	Y3	Z3	X4	Y4	Z4	X5	Y5	Z5	X6	Y6	Z6	X7	Y7	Z7	X8	Y8	Z8	X9	Y9	Z9	X10	Y10	Z10	X11	Y11	Z11	X12	Y12	Z12	X13	Y13	Z13	X14	Y14	Z14	X15	Y15	Z15	X16	Y16	Z16	X17	Y17	Z17	X18	Y18	Z18	X19	Y19	Z19	X20	Y20	Z20	X21	Y21	Z21	X22	Y22	Z22	X23	Y23	Z23	X24	Y24	Z24	X25	Y25	Z25	X26	Y26	Z26	X27	Y27	Z27	X28	Y28	Z28	X29	Y29	Z29	X30	Y30	Z30	X31	Y31	Z31	X32	Y32	Z32	X33	Y33	Z33	X34	Y34	Z34	X35	Y35	Z35	X36	Y36	Z36	X37	Y37	Z37	X38	Y38	Z38	

61	0.24	522.787536621094	1043.415161132813	405.8183288574221	518.2239379882815	1059.36767578125	189.3273620605469	345.5079956054689	1081.688354492188	355.6765136718751	345.9621582031251	1086.62890625	259.9812622070314	449.9530944824221	1115.43359375	456.7178039550784	458.4792480468752	1125.745727539063	160.4388580322266	419.1484375000002	551.6323242187502	490.077331542969	406.202087402344	520.8817138671877	369.3279418945314	441.7858581542971	805.9582519531255	501.0025634765627	487.911071777344	713.4384765625002	490.4456176757815	424.8581848144534	628.9343872070315	491.8269042968752	366.724822998047	96.20049285888678	507.3734130859377	396.2816467285159	105.4997253417969	417.0602111816409	435.3648071289065	397.1249084472659	427.1341247558596	443.3937988281252	331.5665588378907	483.0703735351565	427.564147949219	258.516082763672	441.6544494628909	312.5300598144532	44.58078384399415	454.6242370605471	530.900329589844	47.1188430786133	445.8668212890627	519.7015380859377	43.43948364257814	554.984558105469	419.1351623535159	545.6878662109377	108.8903045654297	410.350524902344	520.0009765625002	231.7642059326173	438.491394042969	832.1469726562505	102.087875366211	477.5620422363284	740.8479614257815	105.9656372070313	412.9898986816409	659.9973754882815	110.6771469116212	372.1123657226564	100.0150375366212	87.98698425292972	400.2227478027346	102.8032302856446	178.8273620605469	439.0882568359377	395.9155578613284	169.9346160888672	450.0449829101565	324.410125732422	121.4186630249024	424.6053771972659	258.0934143066407	166.6259155273438	318.0446777343751	44.43995666503908	134.2227783203126	541.533142089844	42.93522262573244	162.6122436523438	533.0192871093752	41.31529235839845	52.26659774780276	357.6184692382814	1542.822998046876	308.7896118164064	335.7989196777345	1270.454467773438	304.9928588867189	496.9892272949221	1503.256225585938	306.0393676757814	567.8640747070315	1321.528442382813	308.0177612304689	359.538299560547	1538.693237304688	481.0270080566409	354.8935546875001	1539.385742187501	137.440902709961	
62	0.244	522.7790527343752	1043.416625976563	405.8452758789065	518.2873535156252	1059.403198242188	189.3390045166016	345.4116210937501	1081.767578125	355.5906982421876	346.012908935547	1086.67041015625	259.9776916503907	449.9895019531252	1115.465942382813	456.7292480468752	458.5682067871096	1125.765747070313	160.4729156494141	419.1397705078127	551.615905761719	490.0884704589846	406.164978027344	520.8701171875002	369.3207397460939	441.7814636230471	805.9631347656255	500.9833984375002	487.9360656738284	713.4664306640627	490.477478027344	424.8598327636721	628.9331054687502	491.8573303222659	366.6660461425782	96.21291351318365	507.3044433593752	396.2453918457034	105.4696426391602	417.0610961914065	435.3601379394534	397.1165161132815	427.148864746094	443.3529968261721	331.5286560058595	483.0610351562502	427.6024475097659	258.501434326172	441.6635742187502	312.5329895019532	44.58412170410158	454.6340637207034	530.8417968750002	47.11965942382814	445.8386840820315	519.7022094726565	43.47972869873048	555.0079345703127	419.2804260253909	545.7170410156252	108.9352111816407	410.3016052246096	519.9821777343752	231.6941528320314	438.5408935546877	832.1086425781255	102.0944976806641	477.6114501953127	740.8601684570315	105.9469909667969	412.9975891113284	660.0120849609377	110.6589660644532	372.0574645996095	99.98430633544928	87.92774963378909	400.243591308594	102.8020935058594	178.8394165039063	439.0841369628909	395.9003906250002	169.9022064208985	450.0107421875002	324.3638916015626	121.3878250122071	424.6231079101565	258.0941467285157	166.6314239501954	318.0474243164064	44.44863891601564	134.2026367187501	541.5518188476565	42.89750289916994	162.604476928711	533.0706176757815	41.29994201660158	52.34506988525393	357.4987182617189	1542.806396484376	308.7014160156251	335.8455505371095	1270.428344726563	304.9910888671876	497.0678405761721	1503.452270507813	306.0333862304689	567.9009399414065	1321.710083007813	308.0521850585939	359.5421142578126	1538.687011718751	480.9283752441409	354.8632202148439	1539.387573242188	137.3868713378907	
63	0.248	522.752136230469	1043.428466796875	405.8197937011721	518.3331298828127	1059.413818359375	189.3608398437501	345.2852783203126	1081.475952148438	355.6663818359376	346.0275878906251	1086.691162109375	259.9668273925782	450.0222167968752	1115.531982421875	456.7210998535159	458.6364440917971	1125.80126953125	160.4613494873047	419.1247253417971	551.6346435546877	490.0857238769534	406.149841308594	520.8885498046877	369.3304443359376	441.7787170410159	805.957397460938	500.9812316894534	487.9006652832034	713.4619140625002	490.4610290527346	424.8259582519534	628.9340820312502	491.8351745605471	366.6873474121095	96.23312377929693	507.3409118652346	396.2979736328127	105.478988647461	417.0920104980471	435.3695983886721	397.1363525390627	427.1683349609377	443.3515930175784	331.5686950683595	483.0607910156252	427.5486145019534	258.5211181640626	441.6174011230471	312.5704040527345	44.54479217529298	454.4504394531252	530.8779907226565	47.11297988891603	445.8791503906252	519.7000732421877	43.47120666503908	555.0137939453127	419.267028808594	545.7309570312502	108.9763793945313	410.315124511719	520.005798339844	231.7545623779298	438.5690917968752	832.1008300781255	102.0754623413087	477.6581726074221	740.8621215820315	105.922950744629	413.0630798339846	660.008239746094	110.6771850585938	372.0418701171876	99.97412109375006	87.9421310424805	400.2487792968752	102.8146667480469	178.8358459472657	439.1006774902346	395.9197387695315	169.909896850586	450.0244445800784	324.3912048339845	121.4181289672852	424.6125793457034	258.0819396972657	166.6067962646485	318.029998779297	44.45397186279298	134.1899566650391	541.7667236328127	43.19300842285158	162.5745544433594	533.0882568359377	41.29066848754884	52.34499740600589	357.414031982422	1542.781494140626	308.6836853027345	335.7978515625001	1270.431518554688	304.9349670410157	496.910583496094	1503.476318359375	306.0055236816407	567.9016113281252	1321.778930664063	308.0762329101564	359.4121093750001	1538.784545898438	480.9878845214846	354.8111877441407	1539.404785156251	137.3215484619141	
64	0.252	522.7647094726565	1043.442016601563	405.911804199219	518.3855590820315	1059.427734375	189.3934936523438	345.5331420898439	1081.769897460938	355.6435546875001	346.0673828125001	1086.707397460938	259.951629638672	450.0153808593752	1115.594482421875	456.6930236816409	458.7093200683596	1125.871704101563	160.4193878173829	419.1111450195315	551.6392822265627	490.099060058594	406.1546325683596	520.8929443359377	369.3335266113282	441.7580871582034	805.982055664063	500.9790344238284	487.8925781250002	713.476501464844	490.4618225097659	424.8140869140627	628.9500122070315	491.8477478027346	366.6932373046876	96.23863983154303	507.325134277344	396.2626647949221	105.4900436401368	417.0795593261721	435.325866699219	397.1247863769534	427.1260375976565	443.3576354980471	331.5617675781251	483.096130371094	427.5168762207034	258.5171508789064	441.604187011719	312.5351562500001	44.51118469238283	454.7090454101565	530.8657226562502	47.09879684448244	445.8640747070315	519.6970214843752	43.47219467163087	554.982604980469	419.2644348144534	545.713562011719	108.9525451660157	410.267272949219	519.9671630859377	231.7250823974611	438.609558105469	832.191040039063	102.0735473632813	477.707214355469	740.876892089844	105.9207305908204	413.0726623535159	660.0325927734377	110.6486511230469	372.0489196777345	100.0273590087891	87.97058868408206	400.2417297363284	102.8249588012696	178.8452453613282	439.1191101074221	395.904479980469	169.9119262695313	450.0165710449221	324.3614807128907	121.4248580932618	424.6231689453127	258.1004638671876	166.6233215332032	318.0724182128907	44.43569183349611	134.2332153320313	540.9529418945315	42.90448379516603	162.2665405273438	533.113952636719	41.29379272460939	52.37885284423831	357.3183898925782	1542.744018554688	308.6267089843751	335.8125915527345	1270.37646484375	304.9399719238282	496.8945007324221	1503.578491210938	306.0339965820314	567.9730224609377	1321.990234375	308.1881103515626	359.2649841308595	1538.929199218751	480.9601745605471	354.7913818359376	1539.420532226563	137.2926635742188	
65	0.256	522.7875976562502	1043.501098632813	405.8833618164065	518.4177856445315	1059.434448242188	189.4215545654297	345.2437438964845	1081.556762695313	355.6226501464845	346.0746154785157	1086.70751953125	259.9407653808595	450.0413208007815	1115.643432617188	456.7012023925784	458.8183288574221	1125.9013671875	160.4990539550782	419.0963134765627	551.648132324219	490.1092529296877	406.1225585937502	520.8980712890627	369.3150634765626	441.6997985839846	805.9511108398442	501.0193176269534	487.910583496094	713.486267089844	490.4905395507815	424.8021545410159	628.9238281250002	491.8381042480471	366.7126464843751	96.23777008056646	507.3499755859377	396.2968750000002	105.4885406494141	417.0520629882815	435.343444824219	397.1265258789065	427.143493652344	443.3659667968752	331.5699157714845	483.0976867675784	427.5894775390627	258.5853881835939	441.8149414062502	312.544403076172	44.62884902954103	454.7015686035159	530.856872558594	47.10348892211915	445.8604431152346	519.701843261719	43.46438217163087	554.9855957031252	419.3075256347659	545.692321777344	108.907455444336	410.1636352539065	519.9617919921877	231.6378173828126	438.6819763183596	832.1183471679692	102.0669021606446	477.7410278320315	740.8845214843752	105.8842849731446	413.1165161132815	660.0457153320315	110.6218338012696	372.3139038085939	99.99267578125006	88.1382751464844	400.2554016113284	102.8114700317383	178.8338012695313	439.107604980469	395.8999938964846	169.9165802001954	450.0364074707034	324.3689880371095	121.4301223754883	424.6136169433596	258.0830078125001	166.6199798583985	318.0620117187501	44.44011688232423	134.2160797119141	541.7613525390627	43.12022018432619	162.5218353271485	533.0103149414065	41.3025245666504	52.27592849731448	357.204315185547	1542.733520507813	308.583709716797	335.8167419433595	1270.3974609375	304.8759155273439	496.8500671386721	1503.71630859375	306.0175781250001	568.0261230468752	1322.162353515625	308.2106323242189	359.1819763183595	1538.779907226563	480.9454650878909	354.7782592773439	1539.401245117188	137.2747192382813	
